<?xml version="1.0" encoding="utf-8"?>
<!-- Generator: Adobe Illustrator 27.2.0, SVG Export Plug-In . SVG Version: 6.00 Build 0)  -->
<svg version="1.1" id="Layer_1" xmlns="http://www.w3.org/2000/svg" xmlns:xlink="http://www.w3.org/1999/xlink" x="0px" y="0px"
	 viewBox="0 0 100 100" style="enable-background:new 0 0 100 100;" xml:space="preserve">
<style type="text/css">
	.st0{fill:#FFFFFF;}
</style>
<path class="st0" d="M92.61,0H7.39C3.31,0,0,3.21,0,7.16v85.67C0,96.79,3.31,100,7.39,100h85.22c4.08,0,7.39-3.21,7.39-7.16V7.16
	C100,3.21,96.69,0,92.61,0z M30.31,83.71h-15.1V38.55h15.1V83.71z M22.76,32.39h-0.1c-5.07,0-8.35-3.47-8.35-7.8
	c0-4.43,3.38-7.8,8.54-7.8c5.17,0,8.35,3.37,8.45,7.8C31.31,28.92,28.03,32.39,22.76,32.39z M84.78,83.71h-15.1V59.55
	c0-6.07-2.19-10.21-7.65-10.21c-4.17,0-6.66,2.79-7.75,5.49c-0.4,0.96-0.5,2.31-0.5,3.66v25.22h-15.1c0,0,0.2-40.92,0-45.16h15.1
	v6.4c2.01-3.08,5.6-7.45,13.61-7.45c9.94,0,17.39,6.45,17.39,20.32V83.71z"/>
</svg>
